<svg width="262" height="266" viewBox="0 0 262 266" fill="none" xmlns="http://www.w3.org/2000/svg">
<path d="M131 265.559C203.349 265.559 262 206.876 262 134.487C262 62.0985 203.349 3.41581 131 3.41581C58.6507 3.41581 0 62.0985 0 134.487C0 206.876 58.6507 265.559 131 265.559Z" fill="url(#paint0_radial_196_2117)"/>
<path d="M131 3.41581C103.035 3.41581 77.1218 12.1914 55.8394 27.1263C83.4593 38.5364 172.929 73.1122 247.636 74.7655C225.936 32.3954 181.846 3.41581 131 3.41581Z" fill="url(#paint1_radial_196_2117)"/>
<path d="M131 263.233C202.066 263.233 259.676 205.592 259.676 134.487C259.676 63.3829 202.066 5.74143 131 5.74143C59.9343 5.74143 2.32422 63.3829 2.32422 134.487C2.32422 205.592 59.9343 263.233 131 263.233Z" fill="url(#paint2_linear_196_2117)"/>
<path d="M131 5.74143C126.061 5.74143 121.212 6.01387 116.418 6.55901V99.2939L50.9 33.7217C43.2733 39.7902 36.3545 46.7125 30.2895 54.3434L95.8076 119.915H3.1414C2.59656 124.694 2.30615 129.563 2.30615 134.487C2.30615 139.429 2.59682 144.28 3.1414 149.077H95.8076L30.2895 214.631C36.3547 222.262 43.2733 229.184 50.9 235.253L116.418 169.699V262.416C121.212 262.961 126.061 263.251 131 263.251C135.921 263.251 140.788 262.96 145.564 262.416V169.699L211.1 235.253C218.727 229.184 225.645 222.262 231.71 214.631L166.174 149.077H258.859C259.385 144.28 259.676 139.429 259.676 134.487C259.676 129.563 259.385 124.694 258.859 119.916H166.174L231.71 54.3437C225.645 46.7128 218.727 39.7902 211.1 33.7219L145.564 99.2939V6.55901C140.788 6.01387 135.921 5.74143 131 5.74143Z" fill="url(#paint3_linear_196_2117)"/>
<path d="M56.4565 26.9811L63.3389 15.353L62.8487 0L75.2514 7.08602H88.6529L82.2427 18.5142L82.9327 32.1046L70.9294 25.909L56.4565 26.9811Z" fill="white"/>
<path d="M177.342 92.9348V92.9529L240.808 201.64C242.225 199.333 243.569 196.971 244.84 194.573L183.407 89.3552V89.3371L177.342 92.9348Z" fill="url(#paint4_linear_196_2117)"/>
<path d="M126.46 5.81421L177.342 92.9348L183.408 89.3374L134.614 5.77769C133.416 5.75956 132.199 5.74143 131 5.74143C129.475 5.74143 127.968 5.75956 126.46 5.81421Z" fill="url(#paint5_linear_196_2117)"/>
<path d="M174.455 94.6425L122.702 5.99577C112.569 6.64994 102.763 8.46663 93.4109 11.3192L150.376 108.887L174.455 94.6425Z" fill="url(#paint6_linear_196_2117)"/>
<path d="M238.793 204.82L174.473 94.6424H174.455L150.376 108.887L219.762 227.713C226.953 220.863 233.345 213.177 238.793 204.82Z" fill="url(#paint7_linear_196_2117)"/>
<path d="M131.382 237.942C187.935 237.942 233.781 192.152 233.781 135.668C233.781 79.184 187.935 33.3945 131.382 33.3945C74.8279 33.3945 28.9822 79.184 28.9822 135.668C28.9822 192.152 74.8279 237.942 131.382 237.942Z" fill="url(#paint8_linear_196_2117)"/>
<path d="M130.907 245.983C191.771 245.983 241.112 196.37 241.112 135.169C241.112 73.9678 191.771 24.3547 130.907 24.3547C70.0419 24.3547 20.7014 73.9678 20.7014 135.169C20.7014 196.37 70.0419 245.983 130.907 245.983Z" fill="url(#paint9_linear_196_2117)"/>
<path d="M130.907 237.459C188.409 237.459 235.023 190.844 235.023 133.342C235.023 75.8402 188.409 29.2257 130.907 29.2257C73.4048 29.2257 26.7903 75.8402 26.7903 133.342C26.7903 190.844 73.4048 237.459 130.907 237.459Z" fill="url(#paint10_linear_196_2117)"/>
<path d="M130.907 29.2257C125.218 29.2257 119.63 29.6932 114.164 30.5667V94.2945L69.2985 49.4048C60.4798 55.8871 52.7382 63.7109 46.3581 72.5913L91.1014 117.359H28.0093C27.2169 122.561 26.7903 127.906 26.7903 133.332C26.7903 139.001 27.2577 144.549 28.1312 149.975H91.1011L46.6219 194.458C53.0429 203.298 60.825 211.101 69.664 217.544L114.163 173.04V236.117C119.63 236.991 125.217 237.458 130.907 237.458C136.312 237.458 141.615 237.052 146.776 236.26V173.04L191.641 217.909C200.521 211.508 208.344 203.765 214.825 194.966L169.839 149.975H233.682C234.556 144.549 235.023 139.002 235.023 133.332C235.023 127.906 234.597 122.562 233.804 117.359H169.838L215.09 72.0833C208.669 63.2637 200.866 55.4808 192.027 49.0389L146.776 94.2945V30.4245C141.615 29.632 136.312 29.2257 130.907 29.2257Z" fill="url(#paint11_linear_196_2117)"/>
<path d="M93.7376 93.7524C93.7376 93.7524 99.9299 89.7552 107.121 89.4646C114.312 89.1741 116.564 89.5737 118.488 89.8642C120.413 90.1548 121.503 90.3547 121.503 90.3547C121.503 90.3547 125.534 78.3814 129.42 74.2388C133.306 70.1144 136.412 68.9698 138.536 69.2241C140.642 69.4603 145.963 71.9314 148.614 75.3288C151.284 78.7266 153.554 83.0144 153.735 85.3218C153.935 87.6474 153.554 90.0639 151.774 92.9711C149.995 95.8781 149.468 96.3142 149.468 96.3142C149.468 96.3142 173.529 101.783 179.34 103.564C185.151 105.326 196.173 107.488 205.144 117.045C214.097 126.602 216.857 136.359 217.347 145.025C218.418 163.957 213.842 181.218 192.905 184.325C170.569 187.65 115.728 189.503 94.5729 185.815C81.008 183.453 71.8376 169.771 70.9296 156.817C70.3667 148.823 70.2939 137.503 70.2939 137.503C70.2939 137.503 70.2939 125.966 71.8739 121.042C73.4538 116.118 75.4149 112.376 75.4149 112.376C75.4149 112.376 67.7882 105.817 65.9541 103.655C64.4288 101.838 62.1589 100.511 62.0499 95.2242C61.9409 88.3744 67.5703 78.5813 74.1803 77.2551C76.1596 76.8555 78.6113 76.1104 82.3519 79.6716C86.0928 83.2146 88.9982 85.9216 90.7777 89.1194C92.5393 92.317 93.7376 93.7524 93.7376 93.7524Z" fill="#002403"/>
<path d="M90.378 91.6812C90.378 91.6812 96.5885 87.702 103.78 87.3933C110.952 87.1025 113.222 87.5024 115.147 87.7929C117.072 88.0838 118.143 88.2834 118.143 88.2834C118.143 88.2834 122.193 76.3101 126.079 72.1857C129.965 68.0431 133.07 66.8985 135.177 67.1528C137.301 67.4071 142.622 69.8601 145.273 73.2576C147.924 76.6553 150.194 80.9431 150.394 83.2687C150.594 85.5761 150.194 87.9926 148.433 90.8996C146.654 93.8065 146.109 94.2427 146.109 94.2427C146.109 94.2427 170.188 99.7117 175.999 101.492C181.81 103.254 192.832 105.435 201.784 114.992C210.755 124.548 213.515 134.287 214.005 142.954C215.077 161.886 210.501 179.146 189.563 182.253C167.228 185.578 112.387 187.432 91.2133 183.743C77.6484 181.381 68.4961 167.7 67.5882 154.745C67.0071 146.751 66.9525 135.432 66.9525 135.432C66.9525 135.432 66.9525 123.895 68.5143 118.971C70.0942 114.047 72.0734 110.304 72.0734 110.304C72.0734 110.304 64.4283 103.745 62.6126 101.583C61.0873 99.766 58.7993 98.4398 58.7084 93.1708C58.5813 86.3028 64.2288 76.5097 70.8388 75.1835C72.8 74.7839 75.2698 74.057 79.0104 77.6C82.7513 81.143 85.6567 83.8501 87.418 87.0479C89.1975 90.2638 90.378 91.6812 90.378 91.6812Z" fill="#002403"/>
<path d="M88.2172 89.9186C88.2172 89.9186 94.4095 85.9214 101.6 85.6308C108.791 85.3218 111.061 85.7217 112.986 86.0123C114.893 86.3212 115.982 86.5028 115.982 86.5028C115.982 86.5028 120.014 74.5475 123.9 70.405C127.804 66.2625 130.891 65.1359 133.016 65.3721C135.14 65.6264 140.443 68.0975 143.112 71.495C145.763 74.8927 148.033 79.1806 148.233 81.488C148.433 83.7955 148.033 86.2119 146.254 89.1189C144.492 92.0259 143.948 92.4801 143.948 92.4801C143.948 92.4801 168.027 97.9307 173.837 99.7114C179.63 101.492 190.671 103.654 199.623 113.211C208.594 122.768 211.336 132.525 211.844 141.191C212.916 160.123 208.321 177.366 187.384 180.491C165.066 183.798 110.226 185.651 89.0522 181.981C75.4873 179.619 66.335 165.919 65.4089 152.965C64.8459 144.989 64.7732 133.651 64.7732 133.651C64.7732 133.651 64.7732 122.132 66.3531 117.208C67.933 112.266 69.8942 108.523 69.8942 108.523C69.8942 108.523 62.2675 101.982 60.4515 99.8202C58.9262 98.0032 56.6381 96.6586 56.5473 91.3898C56.4202 84.54 62.0495 74.7288 68.6777 73.4026C70.6389 73.0211 73.1086 72.2761 76.8493 75.8191C80.5902 79.3621 83.4956 82.0691 85.2569 85.2851C87.0369 88.4834 88.2172 89.9186 88.2172 89.9186Z" fill="url(#paint12_radial_196_2117)"/>
<path d="M179.176 101.256C185.133 103.073 192.959 106.089 199.624 113.211C200.423 114.047 201.149 114.901 201.857 115.737C200.132 115.61 185.332 115.155 157.422 135.868C132.725 154.201 113.458 176.603 107.647 183.671C100.257 183.344 93.8103 182.799 89.0525 181.981C88.0718 181.799 87.1094 181.582 86.1833 181.291C79.0106 179.038 73.3085 173.551 69.7312 166.919C69.7312 166.919 79.8821 159.379 83.9499 155.854C82.5335 157.235 100.656 141.882 106.957 136.359C113.259 130.835 142.023 106.398 147.525 101.874C151.756 98.4035 151.865 95.769 151.683 94.7152C151.665 94.6243 151.647 94.4609 151.629 94.261C159.219 96.0233 170.333 98.6397 174.037 99.7844C175.472 100.22 177.215 100.675 179.176 101.256Z" fill="url(#paint13_radial_196_2117)"/>
<path d="M151.338 94.1702C158.929 95.9325 170.115 98.5851 173.838 99.7117C177.433 100.82 183.044 102.055 188.91 105.126C187.548 104.472 184.751 104.036 181.501 103.818C164.231 102.655 149.831 111.231 135.213 119.843C121.321 128.019 100.148 145.843 93.5559 151.966C86.9642 158.07 80.3723 165.265 80.3723 165.265L74.6521 161.323C74.6521 161.323 78.393 159.942 80.3723 158.561C82.3334 157.18 100.456 141.809 106.758 136.286C113.059 130.781 141.805 106.343 147.325 101.819C152.827 97.277 151.338 94.1702 151.338 94.1702Z" fill="url(#paint14_radial_196_2117)"/>
<path d="M187.838 144.862C187.765 144.208 188.238 143.626 188.891 143.554C189.527 143.481 190.108 143.953 190.199 144.589C190.326 145.825 189.981 146.988 190.435 148.132C190.544 148.441 190.653 148.714 190.725 148.859C190.907 149.222 191.107 149.513 191.379 149.804C191.67 150.095 192.051 150.385 192.56 150.676C193.122 151.003 193.304 151.712 192.977 152.275C192.65 152.838 191.942 153.038 191.379 152.711C190.689 152.312 190.144 151.894 189.709 151.457C189.436 151.185 189.219 150.912 189.019 150.622C188.728 151.04 188.401 151.421 187.984 151.784C187.384 152.312 186.622 152.784 185.587 153.274C185.006 153.565 184.297 153.311 184.025 152.729C183.734 152.13 183.989 151.439 184.57 151.148C185.387 150.767 185.986 150.403 186.422 150.004C186.821 149.659 187.094 149.295 187.312 148.859C187.566 148.351 187.748 147.769 187.838 147.079C187.929 146.443 187.947 145.698 187.838 144.862Z" fill="#825917"/>
<path d="M180.793 129.218C182.863 129.763 184.425 131.326 184.425 132.489C184.425 133.651 182.59 134.396 180.502 133.833C178.414 133.27 176.889 131.635 176.889 130.472C176.889 129.309 178.704 128.655 180.793 129.218Z" fill="#7C5216"/>
<path d="M195.338 129.218C193.25 129.763 191.706 131.326 191.706 132.489C191.706 133.651 193.54 134.396 195.61 133.833C197.699 133.27 199.242 131.635 199.242 130.472C199.242 129.309 197.408 128.655 195.338 129.218Z" fill="#7C5216"/>
<path d="M127.623 114.738C126.17 114.738 124.99 117.081 124.99 119.952C124.99 122.823 126.17 125.166 127.623 125.166C129.094 125.166 130.274 122.823 130.274 119.952C130.274 117.081 129.094 114.738 127.623 114.738Z" fill="#865C06"/>
<path d="M128.004 125.112C129.275 124.749 130.274 122.586 130.274 119.952C130.274 118.48 129.965 117.172 129.475 116.227C128.186 116.573 127.205 118.753 127.205 121.387C127.205 122.841 127.496 124.167 128.004 125.112Z" fill="#663B10"/>
<path d="M94.5909 113.157C93.1381 113.157 91.9397 115.501 91.9397 118.371C91.9397 121.26 93.1381 123.586 94.5909 123.586C96.0619 123.586 97.2421 121.26 97.2421 118.371C97.2421 115.501 96.0619 113.157 94.5909 113.157Z" fill="#865C06"/>
<path d="M132.017 100.384C132.017 100.384 130.837 100.039 129.475 99.6207C128.131 99.2027 125.371 98.9847 124.154 99.0031C122.956 99.0212 121.376 99.2211 120.958 99.5663C120.54 99.9115 119.778 100.856 121.703 101.383C123.627 101.928 132.017 100.384 132.017 100.384Z" fill="#FFFFC8"/>
<path d="M94.9545 123.531C96.2438 123.186 97.2426 121.006 97.2426 118.371C97.2426 116.918 96.9338 115.592 96.4436 114.647C95.1544 114.992 94.1555 117.172 94.1555 119.807C94.1555 121.26 94.464 122.586 94.9545 123.531Z" fill="#663B10"/>
<path d="M121.866 102.219C121.285 102.219 120.831 101.729 120.831 101.147C120.849 100.584 121.321 100.112 121.902 100.13L133.869 100.402C134.45 100.402 134.904 100.893 134.886 101.474C134.886 102.037 134.414 102.51 133.833 102.492L121.866 102.219Z" fill="#613800"/>
<path d="M99.1129 99.5119C99.1129 99.5119 97.9326 99.1486 96.5887 98.7306C95.2268 98.3126 92.4847 98.0946 91.2682 98.113C90.0698 98.1492 88.4899 98.331 88.0721 98.6762C87.6544 99.0214 86.8919 99.9662 88.8165 100.511C90.7234 101.056 99.1129 99.5119 99.1129 99.5119Z" fill="#FFFFC8"/>
<path d="M88.3986 101.365C87.8356 101.347 87.3635 100.875 87.3816 100.293C87.3997 99.7119 87.8718 99.2577 88.4529 99.2577L100.402 99.5301C100.983 99.5482 101.455 100.021 101.437 100.602C101.419 101.183 100.946 101.638 100.365 101.62L88.3986 101.365Z" fill="#613800"/>
<path d="M96.0437 86.5393C97.7507 86.0669 99.6391 85.7036 101.6 85.6308C108.791 85.3219 111.061 85.7217 112.986 86.0123C114.893 86.3212 115.982 86.5028 115.982 86.5028C115.982 86.5028 120.014 74.5475 123.9 70.405C127.804 66.2625 130.891 65.1359 133.016 65.3721C134.541 65.5539 137.719 66.8801 140.37 68.8789C133.578 66.3171 124.626 74.0027 121.248 79.3442C120.558 80.4343 119.923 81.5973 119.36 82.8145C118.162 85.3944 118.125 86.2847 117.635 86.7752C117.145 87.2657 116.636 87.52 114.639 87.0476C112.641 86.5753 107.938 85.794 104.687 85.8849C101.437 85.9942 98.6587 86.1759 96.0437 86.5393Z" fill="url(#paint15_linear_196_2117)"/>
<path d="M58.7085 97.9132C57.6007 96.6051 56.6021 94.8425 56.5475 91.3904C56.4204 84.5406 62.0498 74.7294 68.6779 73.4032C70.6391 73.0217 73.1089 72.2767 76.8495 75.8197C77.9208 76.8553 78.9378 77.8 79.8639 78.7266C72.8182 73.4032 59.2169 81.3974 57.7278 91.0815C57.1105 95.0787 58.7085 97.9132 58.7085 97.9132Z" fill="url(#paint16_linear_196_2117)"/>
<path d="M84.095 180.546C73.2903 176.149 66.2081 164.285 65.4091 152.965C64.8462 144.989 64.7734 133.652 64.7734 133.652C64.7734 133.652 64.7734 122.133 66.3533 117.209C67.9333 112.267 69.8944 108.524 69.8944 108.524C69.8944 108.524 67.9514 106.871 65.7904 104.926C65.8085 104.926 69.8579 106.471 71.0566 106.671C72.2733 106.871 72.2733 106.871 72.2733 106.871C66.7167 116.936 66.8257 122.024 66.4623 132.525C66.1535 141.264 65.6995 152.875 67.2251 157.653C69.2952 164.157 70.7481 169.263 84.095 180.546Z" fill="url(#paint17_linear_196_2117)"/>
<path d="M52.3625 220.255C73.0399 239.953 101.097 252.071 132.001 252.071C195.639 252.071 247.2 200.761 247.2 137.473C247.2 103.043 231.931 72.1596 207.777 51.1449C229.675 72.0178 243.317 101.382 243.317 133.927C243.317 197.235 191.756 248.525 128.118 248.525C99.1051 248.525 72.613 237.866 52.3625 220.255Z" fill="#FCE5A2"/>
<defs>
<radialGradient id="paint0_radial_196_2117" cx="0" cy="0" r="1" gradientUnits="userSpaceOnUse" gradientTransform="translate(178.062 257.543) rotate(-96.9242) scale(256.356 256.22)">
<stop stop-color="#FFED4C"/>
<stop offset="0.2196" stop-color="#FCA821"/>
<stop offset="0.6392" stop-color="#FFA922"/>
<stop offset="1" stop-color="#FBA824"/>
</radialGradient>
<radialGradient id="paint1_radial_196_2117" cx="0" cy="0" r="1" gradientUnits="userSpaceOnUse" gradientTransform="translate(145.957 4.22216) rotate(82.6017) scale(152.923 152.843)">
<stop stop-color="white"/>
<stop offset="1" stop-color="#FBA824"/>
</radialGradient>
<linearGradient id="paint2_linear_196_2117" x1="38.8294" y1="41.1467" x2="221.334" y2="225.92" gradientUnits="userSpaceOnUse">
<stop stop-color="#FCDE5F"/>
<stop offset="0.6" stop-color="#F6BD38"/>
<stop offset="1" stop-color="#FCC139"/>
</linearGradient>
<linearGradient id="paint3_linear_196_2117" x1="38.8294" y1="41.1466" x2="221.334" y2="225.92" gradientUnits="userSpaceOnUse">
<stop stop-color="#FFFD76"/>
<stop offset="0.6" stop-color="#FFDA4C"/>
<stop offset="1" stop-color="#FEEF88"/>
</linearGradient>
<linearGradient id="paint4_linear_196_2117" x1="238.505" y1="192.969" x2="228.623" y2="175.266" gradientUnits="userSpaceOnUse">
<stop stop-color="#FEFAF3"/>
<stop offset="1" stop-color="#FBFB8B"/>
</linearGradient>
<linearGradient id="paint5_linear_196_2117" x1="120.122" y1="23.0573" x2="147.907" y2="43.4129" gradientUnits="userSpaceOnUse">
<stop stop-color="#FEFAF3"/>
<stop offset="1" stop-color="#FBFB8B"/>
</linearGradient>
<linearGradient id="paint6_linear_196_2117" x1="88.0949" y1="28.0023" x2="127.649" y2="52.0171" gradientUnits="userSpaceOnUse">
<stop stop-color="#FEFAF3"/>
<stop offset="1" stop-color="#FBFB8B"/>
</linearGradient>
<linearGradient id="paint7_linear_196_2117" x1="231.32" y1="216.728" x2="218.376" y2="195.752" gradientUnits="userSpaceOnUse">
<stop stop-color="#FEFAF3"/>
<stop offset="1" stop-color="#FBFB8B"/>
</linearGradient>
<linearGradient id="paint8_linear_196_2117" x1="28.861" y1="135.585" x2="233.784" y2="135.788" gradientUnits="userSpaceOnUse">
<stop stop-color="#C58F15"/>
<stop offset="1" stop-color="#FCDA79"/>
</linearGradient>
<linearGradient id="paint9_linear_196_2117" x1="125.038" y1="24.4585" x2="136.754" y2="245.597" gradientUnits="userSpaceOnUse">
<stop stop-color="#062700"/>
<stop offset="1" stop-color="#002404"/>
</linearGradient>
<linearGradient id="paint10_linear_196_2117" x1="198.501" y1="212.582" x2="63.3937" y2="54.3902" gradientUnits="userSpaceOnUse">
<stop stop-color="#194200"/>
<stop offset="1" stop-color="#003505"/>
</linearGradient>
<linearGradient id="paint11_linear_196_2117" x1="198.49" y1="212.575" x2="63.3677" y2="54.3801" gradientUnits="userSpaceOnUse">
<stop stop-color="#57C345"/>
<stop offset="1" stop-color="#003810"/>
</linearGradient>
<radialGradient id="paint12_radial_196_2117" cx="0" cy="0" r="1" gradientUnits="userSpaceOnUse" gradientTransform="translate(128.154 102.091) rotate(49.3895) scale(86.3405 86.3333)">
<stop stop-color="#FEF866"/>
<stop offset="0.6588" stop-color="#FECD4A"/>
<stop offset="1" stop-color="#F8CE56"/>
</radialGradient>
<radialGradient id="paint13_radial_196_2117" cx="0" cy="0" r="1" gradientUnits="userSpaceOnUse" gradientTransform="translate(138.541 102.137) rotate(112.46) scale(98.7646 98.7265)">
<stop stop-color="#FFFF7F"/>
<stop offset="0.7882" stop-color="#FECE51"/>
<stop offset="1" stop-color="#FCD762"/>
</radialGradient>
<radialGradient id="paint14_radial_196_2117" cx="0" cy="0" r="1" gradientUnits="userSpaceOnUse" gradientTransform="translate(150.164 106.192) rotate(61.6093) scale(84.0852 84.0601)">
<stop stop-color="#FEFDA0"/>
<stop offset="0.5294" stop-color="#FDF799"/>
<stop offset="1" stop-color="#FFCB4A"/>
</radialGradient>
<linearGradient id="paint15_linear_196_2117" x1="94.3419" y1="87.5519" x2="140.064" y2="70.2187" gradientUnits="userSpaceOnUse">
<stop stop-color="#FCF283"/>
<stop offset="1" stop-color="#FEFFED"/>
</linearGradient>
<linearGradient id="paint16_linear_196_2117" x1="61.9296" y1="76.9179" x2="66.6583" y2="84.3867" gradientUnits="userSpaceOnUse">
<stop stop-color="#FFFED2"/>
<stop offset="1" stop-color="#FBCD4F"/>
</linearGradient>
<linearGradient id="paint17_linear_196_2117" x1="63.284" y1="111.416" x2="79.3601" y2="169.427" gradientUnits="userSpaceOnUse">
<stop stop-color="#FFFED2"/>
<stop offset="1" stop-color="#FCD970"/>
</linearGradient>
</defs>
</svg>
