<svg width="262" height="263" viewBox="0 0 262 263" fill="none" xmlns="http://www.w3.org/2000/svg">
<path d="M131 262.143C203.349 262.143 262 203.46 262 131.071C262 58.6827 203.349 0 131 0C58.6507 0 0 58.6827 0 131.071C0 203.46 58.6507 262.143 131 262.143Z" fill="url(#paint0_radial_196_2284)"/>
<path d="M131 0C158.965 0 184.878 8.77556 206.161 23.7105C178.541 35.1206 89.0707 69.6964 14.3457 71.3497C36.0643 28.9796 80.1364 0 131 0Z" fill="url(#paint1_radial_196_2284)"/>
<path d="M131 259.817C202.066 259.817 259.676 202.176 259.676 131.071C259.676 59.967 202.066 2.32556 131 2.32556C59.9343 2.32556 2.32422 59.967 2.32422 131.071C2.32422 202.176 59.9343 259.817 131 259.817Z" fill="url(#paint2_linear_196_2284)"/>
<path d="M207.141 27.2898C219.308 36.229 229.84 47.2758 238.212 59.8668C236.959 62.0833 235.034 64.4092 232.055 66.3714C222.994 72.3309 215.749 63.6279 211.971 58.8495C208.212 54.071 207.613 44.7503 207.722 35.5933C207.759 31.7775 207.486 29.1068 207.141 27.2898ZM250.614 83.5413C253.611 91.0632 255.899 98.9305 257.442 107.088C251.558 104.799 250.106 103.782 247.237 101.965C243.332 99.4754 241.371 96.187 241.662 93.8977C241.952 91.6083 245.584 87.8291 248.036 85.4308C248.835 84.6495 249.743 84.0318 250.614 83.5413ZM255.408 164.066C252.067 176.676 246.892 188.522 240.136 199.296C228.424 192.083 227.062 178.983 227.552 173.842C228.042 168.663 233.145 163.485 240.282 162.704C246.456 162.013 253.556 163.612 255.408 164.066ZM229.277 214.177C221.832 222.989 213.225 230.783 203.691 237.324L203.655 237.27C203.655 237.27 200.622 232.891 199.533 229.511C198.461 226.132 197.081 219.755 195.719 217.066C194.339 214.377 191.706 211.288 191.706 211.288L214.532 187.687C214.532 187.687 214.332 196.644 215.894 199.933C217.456 203.221 218.927 208.799 222.468 211.179C224.483 212.56 227.262 213.559 229.277 214.177ZM171.985 253.149C165.375 255.384 158.529 257.074 151.484 258.2C149.504 256.311 149.995 252.659 150.812 250.969C151.684 249.116 155.261 247.481 161.671 248.425C167.227 249.243 171.059 252.332 171.985 253.149ZM47.5407 229.075C34.8476 218.247 24.297 205.001 16.5792 190.048C17.7776 189.721 22.5173 188.649 31.4879 188.74C42.0203 188.831 43.9815 189.921 47.2138 192.41C50.4461 194.899 51.3178 197.007 52.0622 200.241C52.7885 203.475 54.3684 211.542 51.6263 218.701C49.865 223.316 48.3759 227.022 47.5407 229.075ZM10.5867 176.567C7.84464 169.317 5.73829 161.741 4.34008 153.928C4.95739 154.219 5.99244 154.709 7.44527 155.527C9.98751 156.981 13.3107 159.506 15.2718 161.795C17.233 164.085 17.0878 167.973 15.526 171.552C14.2911 174.386 11.6399 176.004 10.5867 176.567ZM2.36051 134.269C2.32428 133.197 2.30615 132.144 2.30615 131.071C2.30615 120.206 3.66814 109.65 6.19227 99.5844L6.75524 99.9659C6.75524 99.9659 22.7171 110.431 26.0584 112.121C29.3815 113.811 31.2519 113.011 31.2519 113.011L29.2907 144.171C29.2907 144.171 19.285 144.371 13.6195 143.372C9.06142 142.591 4.14024 136.613 2.36051 134.269ZM10.1327 86.7754C17.0694 67.825 28.3462 50.9641 42.7285 37.3918C43.7998 42.4066 45.6704 48.1115 47.7949 55.1613C50.4461 63.9187 53.969 72.1856 53.969 72.1856C53.969 72.1856 50.7367 91.0997 43.5821 90.6999C36.4456 90.3184 33.0135 87.1206 29.981 84.2318C26.9301 81.3429 20.8652 70.6957 20.8652 70.6957C20.8652 70.6957 20.1751 72.0947 17.7238 75.2744C15.2724 78.4541 9.98806 88.5196 9.98806 88.5196C9.98806 88.5196 10.0419 87.8835 10.1327 86.7754ZM84.8032 10.8833C94.4457 7.15879 104.651 4.57864 115.256 3.2887C114.693 4.2153 113.876 5.57802 112.805 7.55838C109.463 13.7359 101.528 15.3348 94.9724 15.3348C90.2146 15.3346 86.492 12.4638 84.8032 10.8833ZM95.6078 73.7299C95.6078 73.7299 92.8658 71.15 91.4857 68.4608C90.1237 65.7719 91.4857 63.8822 94.3367 61.7746C97.1696 59.6853 106.866 58.9039 112.55 60.5937C118.234 62.2835 122.738 65.0633 126.751 67.2618C130.764 69.4421 137.229 69.2603 129.202 73.6392C121.176 78.018 95.6078 73.7299 95.6078 73.7299ZM59.8525 125.312C59.8525 125.312 53.4788 121.224 52.9883 112.957C52.4978 104.69 57.982 99.3301 62.885 93.5525C67.7881 87.7748 68.8594 86.8844 68.5687 78.1089C68.278 69.3514 65.9175 61.5931 74.8335 61.9748C83.7497 62.3744 89.9236 72.731 91.6852 78.9083C93.4466 85.0859 100.801 82.197 90.4141 96.5322C80.0272 110.868 76.9944 111.976 73.3628 115.046C69.7492 118.135 59.8525 125.312 59.8525 125.312ZM37.0264 124.712C37.0264 124.712 40.5494 124.912 45.4522 126.802C50.3371 128.691 51.9167 129.891 53.9688 131.38C56.0208 132.87 57.8911 134.869 57.8911 134.869C57.8911 134.869 59.4529 141.137 58.2724 142.736C57.1102 144.335 53.0789 143.735 50.7362 142.936C48.3938 142.136 39.5684 140.247 37.6072 137.358C35.6463 134.469 34.575 129.781 37.0264 124.712ZM41.6207 163.449C41.6207 163.449 40.6402 159.76 44.8529 156.672C49.066 153.583 54.8586 150.694 60.034 153.183C65.2274 155.673 63.575 156.072 65.046 159.561C66.5169 163.049 67.6791 163.54 65.1368 168.827C62.5946 174.096 57.4011 176.494 55.1493 175.186C52.8974 173.896 48.8843 171.007 46.5237 170.208C44.181 169.426 42.02 167.028 41.6207 163.449ZM113.131 226.168C113.912 225.569 117.344 223.189 116.073 218.301C114.802 213.432 109.318 207.164 99.621 206.364C89.9241 205.565 85.1119 207.654 81.0987 208.545C77.0856 209.453 76.2138 210.234 76.2138 210.234C76.2138 210.234 80.8081 217.611 94.5182 221.699C108.247 225.769 113.131 226.168 113.131 226.168ZM135.957 226.822C135.957 226.822 130.473 225.532 129.892 221.644C129.293 217.756 130.891 216.194 131.726 215.521C132.562 214.849 135.83 213.287 135.867 210.834C135.885 208.399 134.486 205.655 137.047 202.694C139.589 199.732 145.945 191.72 157.222 195.808C168.48 199.877 174.255 203.675 177.397 207.545C180.538 211.433 179.358 213.032 178.958 214.322C178.577 215.612 144.674 228.566 140.57 228.167C136.448 227.767 135.957 226.822 135.957 226.822ZM96.4796 176.131C96.4796 176.131 92.067 180.219 92.176 185.397C92.2668 190.575 93.6469 196.753 102.164 199.333C110.68 201.931 113.041 203.021 120.777 199.133C128.512 195.263 130.092 194.354 133.506 190.884C136.938 187.395 135.667 186.396 140.37 186.087C145.074 185.796 146.835 188.485 151.738 186.887C156.623 185.306 158.584 182.017 158.493 179.02C158.403 176.04 149.577 170.571 142.531 169.663C135.467 168.772 96.4796 176.131 96.4796 176.131ZM176.707 176.24C176.707 176.24 174.074 180.818 175.435 185.306C176.816 189.776 179.358 195.662 184.842 196.062C190.326 196.444 195.52 194.554 199.442 191.375C203.364 188.195 204.345 187.196 203.255 181.618C202.184 176.04 202.075 176.531 203.164 174.841C204.236 173.151 210.21 173.26 208.848 166.574C207.468 159.906 202.184 160.015 199.932 161.904C197.68 163.794 193.467 170.462 188.964 169.862C184.442 169.263 176.997 175.041 176.707 176.24ZM219.126 161.25C219.126 161.25 210.701 153.583 207.613 148.259C204.526 142.936 203.455 141.937 203.31 137.848C203.164 133.779 204.871 133.07 206.633 132.834C208.394 132.579 211.881 133.179 216.239 134.614C220.597 136.068 223.83 137.412 223.83 137.412C223.83 137.412 225.791 141.791 223.975 147.114C222.159 152.438 219.126 161.25 219.126 161.25ZM223.739 125.058C223.739 125.058 219.671 124.712 218.2 125.112C216.729 125.512 216.475 126.911 217.274 128.292C218.055 129.691 221.087 132.325 224.12 133.924C227.153 135.523 227.316 132.434 226.662 130.781C226.027 129.145 223.739 125.058 223.739 125.058ZM208.104 79.5078C208.104 79.5078 204.29 81.0521 203.4 82.5966C202.529 84.1409 202.765 86.9209 203.019 88.1746C203.255 89.4102 203.8 90.0097 202.238 91.0635C200.658 92.0991 196.736 93.3528 195.229 97.5316C193.704 101.71 192.196 110.922 195.229 114.411C198.261 117.899 198.752 118.281 204.726 119.789C210.701 121.279 216.475 121.079 220.506 120.479C224.52 119.88 224.411 118.789 224.411 118.789C224.411 118.789 224.61 92.2988 208.104 79.5078ZM163.432 72.3309C163.432 72.3309 162.706 70.2959 162.851 67.8613C162.996 65.4086 164.867 64.4636 168.626 64.9178C172.403 65.372 188.219 69.8417 190.762 71.3497C193.322 72.8395 197.281 75.0742 196.645 81.7422C196.01 88.4103 196.1 89.8092 192.578 93.7521C189.055 97.6766 178.813 95.0421 173.274 87.0294C167.754 79.0171 163.432 72.3309 163.432 72.3309ZM173.529 46.9487C172.348 46.5491 169.752 47.2395 167.79 47.9843C165.847 48.7475 164.758 53.5258 165.193 55.1066C165.647 56.7055 167.954 57.7955 172.149 59.6853C176.362 61.5931 182.009 64.9725 185.241 66.7529C188.474 68.5517 192.977 70.0416 197.68 70.5502C202.384 71.0407 203.546 70.7501 203.546 70.7501C203.546 70.7501 189.745 56.7599 185.732 53.5258C181.7 50.2918 173.529 46.9487 173.529 46.9487ZM93.011 45.2954C93.011 45.2954 95.4989 48.4932 100.946 49.238C106.376 49.9828 110.534 49.3833 112.641 50.328C114.748 51.2728 118.288 54.9067 120.395 56.8508C122.483 58.7949 134.105 63.2826 140.17 62.9737C146.254 62.6829 151.447 61.9743 155.006 59.0855C158.584 56.2148 160.109 52.1812 159.328 48.7835C158.547 45.4042 156.441 41.9156 154.861 40.3713C153.299 38.827 140.425 33.4124 121.121 36.7374C101.818 40.0805 92.9566 41.9156 92.9566 41.9156L93.011 45.2954ZM233.726 134.923C233.726 134.923 234.126 124.258 234.017 123.368C233.926 122.477 234.907 122.368 236.269 115.501C237.649 108.633 239.501 106.144 241.462 108.833C243.423 111.522 248.217 118.789 244.985 124.858C241.753 130.926 236.468 134.814 233.726 134.923Z" fill="url(#paint3_linear_196_2284)"/>
<path d="M173.057 9.35693C176.598 10.5925 180.048 11.9552 183.444 13.4632L167.791 40.0445L159.528 42.9333L158.13 34.4302L173.057 9.35693Z" fill="url(#paint4_linear_196_2284)"/>
<path d="M133.47 2.34375C144.965 2.56181 156.078 4.28786 166.647 7.32199L148.215 42.1158L119.724 32.6679L133.47 2.34375Z" fill="url(#paint5_linear_196_2284)"/>
<path d="M94.4092 254.548C80.8263 250.515 68.1875 244.319 56.8926 236.343L69.023 213.25L101.909 220.627L94.827 252.749L94.4092 254.548Z" fill="url(#paint6_linear_196_2284)"/>
<path d="M78.4294 234.762L64.9735 233.654L52.7344 224.333L51.3178 238.559L43.564 249.479L56.584 250.878L67.2435 259.327L69.1503 245.936L78.4294 234.762Z" fill="white"/>
<path d="M131.381 234.526C187.935 234.526 233.781 188.737 233.781 132.252C233.781 75.7682 187.935 29.9788 131.381 29.9788C74.8277 29.9788 28.9819 75.7682 28.9819 132.252C28.9819 188.737 74.8277 234.526 131.381 234.526Z" fill="url(#paint7_linear_196_2284)"/>
<path d="M130.907 245.983C193.789 245.983 244.765 194.734 244.765 131.516C244.765 68.297 193.789 17.0483 130.907 17.0483C68.0245 17.0483 17.0483 68.297 17.0483 131.516C17.0483 194.734 68.0245 245.983 130.907 245.983Z" fill="url(#paint8_linear_196_2284)"/>
<path d="M130.907 237.458C190.426 237.458 238.676 189.208 238.676 129.689C238.676 70.1693 190.426 21.9192 130.907 21.9192C71.3873 21.9192 23.1372 70.1693 23.1372 129.689C23.1372 189.208 71.3873 237.458 130.907 237.458Z" fill="url(#paint9_radial_196_2284)"/>
<path d="M130.907 21.9192C115.259 21.9192 100.368 25.2636 86.9493 31.2584C88.0219 32.3101 90.8402 34.6238 95.6566 35.2759C101.945 36.1382 106.761 35.4441 109.201 36.5378C111.641 37.6315 115.742 41.8385 118.182 44.0892C120.601 46.3399 134.062 51.5354 141.087 51.1777C148.132 50.841 154.147 50.0208 158.27 46.6763C162.413 43.3529 164.18 38.6833 163.276 34.7497C162.434 31.1529 160.31 27.4717 158.565 25.4945C149.752 23.1601 140.476 21.9192 130.907 21.9192ZM23.3687 122.863C23.2215 125.114 23.1372 127.385 23.1372 129.678C23.1372 132.644 23.2634 135.589 23.4949 138.491C27.0284 141.163 35.1256 142.951 37.5023 143.75C40.2154 144.676 44.8845 145.37 46.2308 143.519C47.5978 141.668 45.7892 134.411 45.7892 134.411C45.7892 134.411 43.623 132.097 41.2463 130.372C38.8696 128.648 37.0397 127.259 31.3822 125.072C27.9326 123.747 25.0724 123.137 23.3687 122.863ZM28.143 162.239C29.6153 166.846 31.3609 171.326 33.4012 175.638C36.1775 176.837 40.2366 179.74 42.6133 181.086C45.2214 182.601 51.2366 179.824 54.1811 173.724C57.1256 167.603 55.7795 167.035 54.0759 162.997C52.3722 158.958 54.2863 158.495 48.2708 155.614C42.2767 152.732 35.5675 156.076 30.6879 159.652C29.5523 160.494 28.7318 161.377 28.143 162.239ZM71.9112 219.895C84.1311 227.888 98.0755 233.483 113.071 235.986C113.534 234.661 113.702 233.02 113.177 231.001C111.704 225.364 105.352 218.107 94.1214 217.181C82.8902 216.256 77.3167 218.675 72.6685 219.706C72.4161 219.769 72.1637 219.832 71.9112 219.895ZM130.36 237.458C130.528 237.458 130.718 237.458 130.907 237.458C151.182 237.458 170.153 231.863 186.348 222.124C186.011 221.157 185.36 219.979 184.203 218.549C180.564 214.068 173.876 209.672 160.836 204.96C147.775 200.228 140.413 209.504 137.469 212.933C134.503 216.361 136.123 219.537 136.102 222.356C136.06 225.196 132.274 227.005 131.306 227.783C130.339 228.561 128.488 230.37 129.182 234.871C129.33 235.881 129.771 236.722 130.36 237.458ZM234.785 158.39C236.573 151.911 237.772 145.202 238.319 138.302C238.13 137.692 237.982 137.356 237.982 137.356C237.982 137.356 234.239 135.799 229.191 134.116C224.143 132.455 220.105 131.761 218.065 132.055C216.025 132.329 214.048 133.149 214.216 137.861C214.384 142.594 215.625 143.75 219.201 149.914C222.776 156.077 232.535 164.953 232.535 164.953C232.535 164.953 233.544 162.05 234.785 158.39ZM238.592 133.443C238.634 132.202 238.676 130.94 238.676 129.678C238.676 127.869 238.613 126.04 238.529 124.251C238.13 123.536 237.877 123.052 237.877 123.052C237.877 123.052 233.166 122.653 231.462 123.115C229.759 123.578 229.464 125.198 230.39 126.797C231.294 128.416 234.807 131.466 238.319 133.317C238.424 133.359 238.508 133.401 238.592 133.443ZM237.877 116.679C235.942 100.525 230.432 85.4639 222.145 72.3386C221.388 71.6236 220.609 70.9505 219.768 70.3194C219.768 70.3194 215.351 72.1072 214.321 73.8953C213.311 75.683 213.585 78.9015 213.879 80.3529C214.153 81.7834 214.784 82.4774 212.975 83.6974C211.145 84.8963 206.602 86.3477 204.856 91.1855C203.09 96.0233 201.344 106.688 204.856 110.727C208.369 114.765 208.937 115.207 215.856 116.953C222.776 118.678 229.464 118.446 234.133 117.752C236.131 117.457 237.267 117.037 237.877 116.679ZM213.332 60.2648C203.595 48.6959 191.459 39.2095 177.683 32.5626C176.252 32.7518 174.528 33.2776 173.076 33.8245C170.826 34.7081 169.564 40.2399 170.069 42.07C170.595 43.921 173.266 45.183 178.124 47.3707C183.004 49.5794 189.545 53.4917 193.289 55.5529C197.032 57.6354 202.248 59.3603 207.696 59.9491C210.598 60.2438 212.344 60.2858 213.332 60.2648ZM89.4732 63.6302C89.4732 63.6302 86.2973 60.6435 84.6988 57.5302C83.1214 54.4172 84.6988 52.2295 88.001 49.7896C91.2821 47.3707 102.513 46.4662 109.096 48.4224C115.68 50.3787 120.896 53.5969 125.544 56.1421C130.192 58.6662 137.679 58.4557 128.383 63.5253C119.087 68.5945 89.4732 63.6302 89.4732 63.6302ZM48.0607 123.347C48.0607 123.347 40.6785 118.614 40.1104 109.044C39.5423 99.4733 45.8942 93.2677 51.573 86.5789C57.2518 79.89 58.4926 78.8593 58.1559 68.6998C57.8193 58.5613 55.0853 49.5794 65.4119 50.0214C75.7389 50.484 82.8896 62.4738 84.93 69.6253C86.97 76.7771 95.4881 73.4326 83.4577 90.0285C71.4274 106.625 67.9148 107.908 63.7085 111.463C59.5232 115.038 48.0607 123.347 48.0607 123.347ZM90.4829 182.18C90.4829 182.18 85.3722 186.913 85.4984 192.908C85.6036 198.902 87.202 206.054 97.0661 209.041C106.93 212.049 109.665 213.311 118.624 208.809C127.584 204.329 129.414 203.277 133.368 199.26C137.343 195.221 135.871 194.064 141.318 193.707C146.766 193.37 148.806 196.483 154.484 194.632C160.142 192.802 162.414 188.995 162.309 185.524C162.203 182.075 151.982 175.743 143.821 174.692C135.639 173.661 90.4829 182.18 90.4829 182.18ZM183.403 182.306C183.403 182.306 180.354 187.607 181.931 192.802C183.53 197.977 186.474 204.792 192.826 205.255C199.178 205.696 205.193 203.509 209.736 199.828C214.279 196.147 215.415 194.99 214.153 188.532C212.912 182.075 212.786 182.643 214.047 180.687C215.288 178.73 222.208 178.857 220.63 171.116C219.032 163.396 212.912 163.523 210.303 165.71C207.695 167.897 202.816 175.617 197.6 174.923C192.363 174.229 183.74 180.918 183.403 182.306ZM168.029 62.0106C168.029 62.0106 167.188 59.6547 167.356 56.8361C167.524 53.9966 169.69 52.9026 174.044 53.4284C178.419 53.9543 196.738 59.1288 199.682 60.8746C202.648 62.5995 207.233 65.1865 206.497 72.9062C205.76 80.6258 205.866 82.2454 201.786 86.81C197.705 91.3534 185.843 88.3034 179.428 79.0272C173.035 69.7512 168.029 62.0106 168.029 62.0106Z" fill="url(#paint10_radial_196_2284)"/>
<path d="M78.9559 166.883C111.988 178.02 153.608 175.168 184.006 167.101C184.006 167.101 186.422 175.15 188.292 177.966C193.34 185.543 196.191 184.634 199.896 176.93C202.256 172.043 204.417 163.649 204.254 149.441C203.945 126.003 200.804 107.07 200.204 104.709C199.623 102.346 198.824 99.4032 197.353 97.023C195.882 94.6609 184.551 75.8561 155.515 69.6423C126.46 63.4285 105.777 69.3514 95.8439 73.0944C85.8926 76.8373 75.2515 83.0327 68.1694 93.2803C61.0872 103.528 61.8681 109.741 61.8681 109.741C61.8681 109.741 58.2181 132.108 58.5268 145.407C58.8173 158.707 59.1079 169.736 63.448 177.821C67.77 185.888 72.1098 184.416 74.6705 178.402C77.2308 172.388 78.9559 166.883 78.9559 166.883Z" fill="#49084B"/>
<path d="M49.9272 220.123C71.2694 240.657 100.201 253.289 132.067 253.289C197.666 253.289 250.854 199.802 250.854 133.829C250.854 97.9384 235.109 65.7448 210.203 43.8385C232.782 65.5969 246.849 96.2065 246.849 130.133C246.849 196.126 193.683 249.592 128.063 249.592C98.1464 249.592 70.8293 238.481 49.9272 220.123Z" fill="#FCE5A2"/>
<path d="M78.9559 161.559C111.988 172.715 153.608 169.844 184.006 161.777C184.006 161.777 186.422 169.826 188.292 172.642C193.34 180.219 196.191 179.31 199.896 171.607C202.256 166.719 204.417 158.344 204.254 144.117C203.945 120.679 200.804 101.765 200.204 99.4031C199.623 97.0228 198.824 94.0796 197.353 91.7175C195.882 89.3373 184.551 70.5325 155.515 64.3187C126.46 58.123 105.777 64.0279 95.8439 67.7708C85.8926 71.5137 75.2515 77.7275 68.1694 87.9748C61.0872 98.204 61.8681 104.418 61.8681 104.418C61.8681 104.418 58.2181 126.784 58.5268 140.084C58.8173 153.383 59.1079 164.412 63.448 172.497C67.77 180.582 72.1098 179.092 74.6705 173.079C77.2308 167.083 78.9559 161.559 78.9559 161.559Z" fill="url(#paint11_radial_196_2284)"/>
<path d="M189.927 174.895C193.994 179.928 196.609 178.438 199.896 171.607C202.021 167.228 203.982 160.015 204.236 148.277C204.018 148.605 200.659 153.765 199.606 156.145C198.534 158.616 194.594 168.372 192.324 170.443C191.071 171.571 190.217 173.188 189.927 174.895Z" fill="url(#paint12_linear_196_2284)"/>
<path d="M58.7268 131.671C58.5451 134.651 58.4545 137.54 58.527 140.083C58.8174 153.383 59.1081 164.412 63.4482 172.497C67.7701 180.582 72.11 179.092 74.6706 173.078L74.7068 172.987C72.4733 170.589 71.8014 169.063 67.4794 161.268C62.5948 152.457 58.9266 132.707 58.7268 131.671Z" fill="url(#paint13_linear_196_2284)"/>
<path d="M179.213 73.8389C173.129 69.9688 165.339 66.4261 155.515 64.3183C133.488 59.6125 116.273 61.8837 104.905 64.8816C104.887 64.8997 104.869 64.9178 104.869 64.9178C118.761 61.72 144.166 65.3721 164.649 72.24C165.339 72.4762 166.029 72.7124 166.701 72.9486C168.862 73.5118 172.839 74.1479 179.213 73.8389Z" fill="url(#paint14_radial_196_2284)"/>
<path d="M78.9561 161.559C83.1326 162.976 87.4546 164.157 91.8855 165.138C87.3821 159.361 85.893 132.943 85.893 132.943C85.893 132.943 85.1483 139.992 84.3677 143.19C83.5871 146.388 78.9561 161.559 78.9561 161.559Z" fill="url(#paint15_linear_196_2284)"/>
<path d="M169.425 165.066C174.509 164.103 179.376 162.995 184.007 161.777C184.007 161.777 182.59 156.781 181.301 147.769C180.03 138.757 179.576 134.178 179.576 134.178C178.849 145.825 178.886 156.981 169.425 165.066Z" fill="url(#paint16_linear_196_2284)"/>
<path d="M124.281 101.874C129.293 111.758 144.692 112.448 151.121 109.523C149.813 108.433 146.544 105.926 144.329 102.183L124.281 101.874Z" fill="url(#paint17_linear_196_2284)"/>
<path d="M124.354 102.037C124.427 102.146 124.481 102.255 124.536 102.365C130.728 107.797 136.63 109.505 144.801 109.214C147.598 109.105 148.633 108.887 148.615 108.887C148.615 108.887 145.945 105.381 144.329 102.183L124.608 101.874L124.354 102.037Z" fill="url(#paint18_linear_196_2284)"/>
<path d="M79.2466 161.65C112.242 172.697 153.699 169.826 184.007 161.777C184.007 161.777 177.796 150.839 169.098 143.481C160.382 136.123 139.353 129.582 110.607 135.795C81.8613 142.009 79.2466 161.65 79.2466 161.65Z" fill="url(#paint19_radial_196_2284)"/>
<path d="M124.136 101.765C130.237 107.215 136.012 108.923 144.038 108.633C146.744 108.524 147.525 108.306 147.525 108.306C147.525 108.306 143.293 100.656 142.549 98.0402C141.823 95.4238 140.788 91.4449 140.788 91.4449L124.136 101.765Z" fill="url(#paint20_radial_196_2284)"/>
<path d="M133.452 107.379H133.47C137.61 108.905 144.293 108.851 147.525 108.306C147.525 108.306 143.294 100.656 142.549 98.0402C141.823 95.4238 140.788 91.4449 140.788 91.4449C140.788 91.4449 139.444 94.4791 139.626 96.496C139.826 98.5128 142.35 105.653 142.35 105.653C140.697 106.525 136.285 107.107 133.452 107.379Z" fill="url(#paint21_radial_196_2284)"/>
<defs>
<radialGradient id="paint0_radial_196_2284" cx="0" cy="0" r="1" gradientUnits="userSpaceOnUse" gradientTransform="translate(177.878 254.041) rotate(-96.9242) scale(256.356 256.22)">
<stop stop-color="#FFED4C"/>
<stop offset="0.2196" stop-color="#FCA821"/>
<stop offset="0.6392" stop-color="#FFA922"/>
<stop offset="1" stop-color="#FBA824"/>
</radialGradient>
<radialGradient id="paint1_radial_196_2284" cx="0" cy="0" r="1" gradientUnits="userSpaceOnUse" gradientTransform="translate(104.202 0.856236) rotate(97.3983) scale(152.923 152.843)">
<stop stop-color="white"/>
<stop offset="1" stop-color="#FBA824"/>
</radialGradient>
<linearGradient id="paint2_linear_196_2284" x1="39.0046" y1="37.7304" x2="221.508" y2="222.505" gradientUnits="userSpaceOnUse">
<stop stop-color="#FCDE5F"/>
<stop offset="0.6" stop-color="#F6BD38"/>
<stop offset="1" stop-color="#FCC73D"/>
</linearGradient>
<linearGradient id="paint3_linear_196_2284" x1="72.208" y1="15.2376" x2="220.276" y2="223.497" gradientUnits="userSpaceOnUse">
<stop stop-color="#FFFD76"/>
<stop offset="0.6" stop-color="#FFDA4C"/>
<stop offset="1" stop-color="#FFE452"/>
</linearGradient>
<linearGradient id="paint4_linear_196_2284" x1="171.33" y1="21.3369" x2="169.334" y2="34.0159" gradientUnits="userSpaceOnUse">
<stop stop-color="#FEFAF3"/>
<stop offset="1" stop-color="#FBFB8B"/>
</linearGradient>
<linearGradient id="paint5_linear_196_2284" x1="144.624" y1="14.6026" x2="140.922" y2="29.62" gradientUnits="userSpaceOnUse">
<stop stop-color="#FEFAF3"/>
<stop offset="1" stop-color="#FBFB8B"/>
</linearGradient>
<linearGradient id="paint6_linear_196_2284" x1="80.0775" y1="226.456" x2="76.5251" y2="242.053" gradientUnits="userSpaceOnUse">
<stop stop-color="#FEFAF3"/>
<stop offset="1" stop-color="#FBFB8B"/>
</linearGradient>
<linearGradient id="paint7_linear_196_2284" x1="29.0359" y1="132.17" x2="233.959" y2="132.373" gradientUnits="userSpaceOnUse">
<stop stop-color="#C58F15"/>
<stop offset="1" stop-color="#FCDA79"/>
</linearGradient>
<linearGradient id="paint8_linear_196_2284" x1="125.046" y1="17.1561" x2="137.146" y2="245.585" gradientUnits="userSpaceOnUse">
<stop stop-color="#470808"/>
<stop offset="1" stop-color="#7B0808"/>
</linearGradient>
<radialGradient id="paint9_radial_196_2284" cx="0" cy="0" r="1" gradientUnits="userSpaceOnUse" gradientTransform="translate(131.152 129.839) rotate(-130.5) scale(107.667)">
<stop stop-color="#F73B00"/>
<stop offset="1" stop-color="#890000"/>
</radialGradient>
<radialGradient id="paint10_radial_196_2284" cx="0" cy="0" r="1" gradientUnits="userSpaceOnUse" gradientTransform="translate(132.475 128.476) rotate(-130.497) scale(107.673 107.671)">
<stop stop-color="#FF9A7A"/>
<stop offset="1" stop-color="#BD0000"/>
</radialGradient>
<radialGradient id="paint11_radial_196_2284" cx="0" cy="0" r="1" gradientUnits="userSpaceOnUse" gradientTransform="translate(132.797 71.9345) rotate(37.6976) scale(85.3495 85.3613)">
<stop stop-color="#FEFE78"/>
<stop offset="0.5882" stop-color="#FDD559"/>
<stop offset="1" stop-color="#F2C242"/>
</radialGradient>
<linearGradient id="paint12_linear_196_2284" x1="195.43" y1="161.336" x2="204.693" y2="165.868" gradientUnits="userSpaceOnUse">
<stop stop-color="#F2C242"/>
<stop offset="1" stop-color="#FDE5A7"/>
</linearGradient>
<linearGradient id="paint13_linear_196_2284" x1="65.986" y1="154.202" x2="56.7171" y2="158.935" gradientUnits="userSpaceOnUse">
<stop stop-color="#F2C242"/>
<stop offset="1" stop-color="#FDE5A7"/>
</linearGradient>
<radialGradient id="paint14_radial_196_2284" cx="0" cy="0" r="1" gradientUnits="userSpaceOnUse" gradientTransform="translate(148.791 61.7834) rotate(47.6618) scale(18.1135 18.1126)">
<stop stop-color="#FEFEC0"/>
<stop offset="1" stop-color="#FDFE89"/>
</radialGradient>
<linearGradient id="paint15_linear_196_2284" x1="88.5268" y1="149.122" x2="80.9116" y2="149.996" gradientUnits="userSpaceOnUse">
<stop stop-color="#F2C242"/>
<stop offset="1" stop-color="#C99C37"/>
</linearGradient>
<linearGradient id="paint16_linear_196_2284" x1="175.599" y1="149.933" x2="182.299" y2="151.903" gradientUnits="userSpaceOnUse">
<stop stop-color="#F2C242"/>
<stop offset="1" stop-color="#C99C37"/>
</linearGradient>
<linearGradient id="paint17_linear_196_2284" x1="136.257" y1="114.352" x2="139.085" y2="98.7197" gradientUnits="userSpaceOnUse">
<stop stop-color="#FDE263"/>
<stop offset="0.5294" stop-color="#CEAA50"/>
<stop offset="1" stop-color="#FDE565"/>
</linearGradient>
<linearGradient id="paint18_linear_196_2284" x1="136.101" y1="108.225" x2="137.873" y2="98.4942" gradientUnits="userSpaceOnUse">
<stop stop-color="#B39445"/>
<stop offset="1" stop-color="#FDE565"/>
</linearGradient>
<radialGradient id="paint19_radial_196_2284" cx="0" cy="0" r="1" gradientUnits="userSpaceOnUse" gradientTransform="translate(131.461 130.61) rotate(88.1586) scale(54.2091 54.1796)">
<stop stop-color="#FCDB7E"/>
<stop offset="0.8" stop-color="#FFEFBF"/>
<stop offset="1" stop-color="#EED697"/>
</radialGradient>
<radialGradient id="paint20_radial_196_2284" cx="0" cy="0" r="1" gradientUnits="userSpaceOnUse" gradientTransform="translate(133.177 72.3148) rotate(37.72) scale(85.4113 85.4231)">
<stop stop-color="#FEFE78"/>
<stop offset="0.5882" stop-color="#FDD559"/>
<stop offset="1" stop-color="#F2C242"/>
</radialGradient>
<radialGradient id="paint21_radial_196_2284" cx="0" cy="0" r="1" gradientUnits="userSpaceOnUse" gradientTransform="translate(150.948 101.957) rotate(-144.633) scale(15.1572 15.16)">
<stop stop-color="#FDFFB6"/>
<stop offset="1" stop-color="#FEEB6A"/>
</radialGradient>
</defs>
</svg>
