<svg width="16" height="16" viewBox="0 0 16 16" fill="none" xmlns="http://www.w3.org/2000/svg">
<g id="Brands / Google" clip-path="url(#clip0_522_3247)">
<rect width="16" height="16" fill="transparent"/>
<path id="Vector" d="M15.6263 8.1497C15.6263 7.49419 15.5731 7.01584 15.458 6.51978H7.97266V9.47843H12.3664C12.2778 10.2137 11.7995 11.321 10.7364 12.0651L10.7215 12.1641L13.0883 13.9976L13.2522 14.0139C14.7581 12.6232 15.6263 10.5769 15.6263 8.1497Z" fill="#4285F4"/>
<path id="Vector_2" d="M7.97175 15.945C10.1243 15.945 11.9314 15.2363 13.2513 14.0139L10.7355 12.065C10.0623 12.5345 9.15874 12.8622 7.97175 12.8622C5.86347 12.8622 4.0741 11.4715 3.43624 9.54926L3.34274 9.55719L0.881793 11.4617L0.849609 11.5512C2.16063 14.1555 4.85358 15.945 7.97175 15.945Z" fill="#34A853"/>
<path id="Vector_3" d="M3.43701 9.5493C3.2687 9.05324 3.1713 8.5217 3.1713 7.97251C3.1713 7.42326 3.2687 6.89177 3.42815 6.39571L3.42369 6.29006L0.931908 4.35492L0.850382 4.3937C0.310046 5.47443 0 6.68805 0 7.97251C0 9.25697 0.310046 10.4705 0.850382 11.5513L3.43701 9.5493Z" fill="#FBBC05"/>
<path id="Vector_4" d="M7.97175 3.08269C9.46879 3.08269 10.4786 3.72934 11.0544 4.26974L13.3045 2.07285C11.9226 0.788397 10.1243 0 7.97175 0C4.85358 0 2.16063 1.78937 0.849609 4.39371L3.42738 6.39573C4.0741 4.47347 5.86347 3.08269 7.97175 3.08269Z" fill="#EB4335"/>
</g>
<defs>
<clipPath id="clip0_522_3247">
<rect width="16" height="16" fill="transparent"/>
</clipPath>
</defs>
</svg>
